<svg xmlns="http://www.w3.org/2000/svg" viewBox="0 0 256 256" role="img" aria-label="Mastercard">
  <rect fill="#FF5F00" x="93.298" y="16.903" width="69.15" height="124.251"/>
  <path fill="#EB001B" d="M97.689 79.029c0-25.245 11.854-47.637 30.074-62.125C114.372 6.366 97.469 0 79.029 0 35.343 0 0 35.343 0 79.029s35.343 79.029 79.029 79.029c18.44 0 35.343-6.366 48.734-16.903-18.22-14.269-30.074-36.66-30.074-62.126z"/>
  <path fill="#F79E1B" d="M255.746 79.029c0 43.685-35.343 79.029-79.029 79.029-18.44 0-35.343-6.366-48.734-16.903 18.22-14.269 30.074-36.66 30.074-62.126 0-25.245-11.854-47.637-30.074-62.125 13.391-10.537 30.294-16.903 48.734-16.903 43.686 0 79.029 35.563 79.029 79.029z"/>
</svg>
